{"title":"Magic Mike 2012 720p R5 BRRiP CAM AUDiO XViD - ARiSE","uid":7530566,"size":1911821021,"categoryP":"video","categoryS":"hd___movies","magnet":"?xt=urn:btih:1452e8644ecd9a770c16d5a77bc19c3085697e9d&amp;dn=Magic+Mike+2012+720p+R5+BRRiP+CAM+AUDiO+XViD+-+ARiSE&amp;tr=udp%3A%2F%2Ftracker.openbittorrent.com%3A80&amp;tr=udp%3A%2F%2Fopen.demonii.com%3A1337&amp;tr=udp%3A%2F%2Ftracker.coppersurfer.tk%3A6969&amp;tr=udp%3A%2F%2Fexodus.desync.com%3A6969","seeders":1,"leechers":0,"uploader":"punk420","files":4,"time":1344913818,"description":"TITLE: Magic Mike 2012 720p R5 BRRiP CAM AUDiO XViD - ARiSE\n \n\n &lt;a href=&quot; http://www.imdb.com/title/tt1915581/&quot; rel=&quot;nofollow&quot; target=&quot;_NEW&quot;&gt; http://www.imdb.com/title/tt1915581/&lt;/a&gt;\n \n\nSOURCES:\n AUDIO - ILLUMINATI\n VIDEO - Russian BRRiP\n \n\nSTATS:\n \nVideo\n ID : 0\n Format : MPEG-4 Visual\n Format profile : Advanced Simple@L5\n Format settings, BVOP : 2\n Format settings, QPel : No\n Format settings, GMC : No warppoints\n Format settings, Matrix : Default (MPEG)\n Muxing mode : Packed bitstream\n Codec ID : XVID\n Codec ID/Hint : XviD\n Duration : 1h 50mn\n Bit rate : 2 143 Kbps\n Width : 1 280 pixels\n Height : 544 pixels\n Display aspect ratio : 2.35:1\n Frame rate : 24.000 fps\n Color space : YUV\n Chroma subsampling : 4:2:0\n Bit depth : 8 bits\n Scan type : Progressive\n Compression mode : Lossy\n Bits/(Pixel*Frame) : 0.128\n Stream size : 1.65 GiB (94%)\n Writing library : XviD 64\n \nAudio\n ID : 1\n Format : MPEG Audio\n Format version : Version 1\n Format profile : Layer 3\n Codec ID : 55\n Codec ID/Hint : MP3\n Duration : 1h 50mn\n Bit rate mode : Constant\n Bit rate : 128 Kbps\n Channel(s) : 2 channels\n Sampling rate : 44.1 KHz\n Compression mode : Lossy\n Stream size : 101 MiB (6%)\n Alignment : Split accross interleaves\n Interleave, duration : 42 ms (1.00 video frame)\n Interleave, preload duration : 500 ms\n &lt;a href=&quot; http://i.imgrz.com/VsIaA.png&quot; rel=&quot;nofollow&quot; target=&quot;_NEW&quot;&gt; http://i.imgrz.com/VsIaA.png&lt;/a&gt; &lt;a href=&quot;\nhttp://i.imgrz.com/kBJVi.png&quot; rel=&quot;nofollow&quot; target=&quot;_NEW&quot;&gt;\nhttp://i.imgrz.com/kBJVi.png&lt;/a&gt; &lt;a href=&quot;\nhttp://i.imgrz.com/U6yMN.png&quot; rel=&quot;nofollow&quot; target=&quot;_NEW&quot;&gt;\nhttp://i.imgrz.com/U6yMN.png&lt;/a&gt;\nWORKDONE:\n \nFirst off the tag ...well was unsure what to tag it as,but came too this tagging after speaking to my russian Pal\n He told me the better source was ripped from the russian 1080p bluray and would explain the 24fps.\n \nAnyway was kindly give a nice 720p rip and tweaked it some as i don't like the colouring and if its meant too be like that\n well fuck me sideways ....looks shite.\n So fixed it up too what i thought looked better ...ran a few other filters aswell ..\n Audio took ILLUMINATI's release as its better cam audio ...however the sync wouldnt fit over this rip so needed too resync it\n and also cleaned it some more in AA.\n ","torrent":{"xt":"urn:btih:1452e8644ecd9a770c16d5a77bc19c3085697e9d","amp;dn":"Magic+Mike+2012+720p+R5+BRRiP+CAM+AUDiO+XViD+-+ARiSE","amp;tr":["udp%3A%2F%2Ftracker.openbittorrent.com%3A80","udp%3A%2F%2Fopen.demonii.com%3A1337","udp%3A%2F%2Ftracker.coppersurfer.tk%3A6969","udp%3A%2F%2Fexodus.desync.com%3A6969"],"infoHash":"1452e8644ecd9a770c16d5a77bc19c3085697e9d","infoHashBuffer":{"type":"Buffer","data":[20,82,232,100,78,205,154,119,12,22,213,167,123,193,156,48,133,105,126,157]},"announce":[],"urlList":[]}}